Duration: 02:28:03.80, start: 0.000000, bitrate: 664 kb/s
Stream #0.0: Video: mpeg4, yuv420p, 528x224 [PAR 1:1 DAR 33:14], 25 tbr, 25 tbn, 25 tbc
Stream #0.1: Audio: mp3, 48000 Hz, 2 channels, s16, 128 kb/s